<mxfile host="65bd71144e">
    <diagram id="zHjok8IunoWrPPDsl-fr" name="Page-1">
        <mxGraphModel dx="924" dy="1031" grid="0" gridSize="10" guides="1" tooltips="1" connect="1" arrows="1" fold="1" page="0" pageScale="1" pageWidth="850" pageHeight="1100" math="0" shadow="0">
            <root>
                <mxCell id="0"/>
                <mxCell id="1" parent="0"/>
                <mxCell id="28" style="edgeStyle=none;html=1;fontSize=14;" edge="1" parent="1" source="3" target="24">
                    <mxGeometry relative="1" as="geometry"/>
                </mxCell>
                <mxCell id="3" value="" style="rounded=1;whiteSpace=wrap;html=1;fillColor=default;" vertex="1" parent="1">
                    <mxGeometry x="170" y="100" width="490" height="140" as="geometry"/>
                </mxCell>
                <mxCell id="4" value="Clientes" style="text;html=1;strokeColor=none;fillColor=#808080;align=center;verticalAlign=middle;whiteSpace=wrap;rounded=0;rotation=-90;fillStyle=solid;strokeWidth=0;fontSize=20;" vertex="1" parent="1">
                    <mxGeometry x="90" y="140" width="110" height="50" as="geometry"/>
                </mxCell>
                <mxCell id="6" value="Web Client" style="rounded=0;whiteSpace=wrap;html=1;" vertex="1" parent="1">
                    <mxGeometry x="190" y="140" width="100" height="60" as="geometry"/>
                </mxCell>
                <mxCell id="7" value="Mobile (Consumidor API )" style="rounded=0;whiteSpace=wrap;html=1;" vertex="1" parent="1">
                    <mxGeometry x="310" y="140" width="160" height="60" as="geometry"/>
                </mxCell>
                <mxCell id="8" value="Outro (Consumidor API)" style="rounded=0;whiteSpace=wrap;html=1;" vertex="1" parent="1">
                    <mxGeometry x="490" y="140" width="150" height="60" as="geometry"/>
                </mxCell>
                <mxCell id="26" style="edgeStyle=none;html=1;fontSize=14;" edge="1" parent="1" source="24" target="10">
                    <mxGeometry relative="1" as="geometry"/>
                </mxCell>
                <mxCell id="29" style="edgeStyle=none;html=1;fontSize=14;" edge="1" parent="1" source="24" target="3">
                    <mxGeometry relative="1" as="geometry"/>
                </mxCell>
                <mxCell id="24" value="ViewModels" style="rounded=0;whiteSpace=wrap;html=1;fillStyle=solid;strokeWidth=1;fontSize=14;fillColor=default;" vertex="1" parent="1">
                    <mxGeometry x="355" y="270" width="120" height="30" as="geometry"/>
                </mxCell>
                <mxCell id="27" style="edgeStyle=none;html=1;entryX=0.5;entryY=1;entryDx=0;entryDy=0;fontSize=14;" edge="1" parent="1" source="10" target="24">
                    <mxGeometry relative="1" as="geometry"/>
                </mxCell>
                <mxCell id="37" value="Camada de Serviços" style="text;html=1;strokeColor=none;fillColor=#808080;align=center;verticalAlign=middle;whiteSpace=wrap;rounded=0;rotation=-90;fillStyle=solid;strokeWidth=0;fontSize=20;" vertex="1" parent="1">
                    <mxGeometry x="-20" y="560" width="250" height="50" as="geometry"/>
                </mxCell>
                <mxCell id="52" style="edgeStyle=none;html=1;fontSize=14;" edge="1" parent="1" source="10" target="34">
                    <mxGeometry relative="1" as="geometry"/>
                </mxCell>
                <mxCell id="10" value="&lt;span style=&quot;color: rgba(0, 0, 0, 0); font-family: monospace; font-size: 0px; text-align: start;&quot;&gt;%3CmxGraphModel%3E%3Croot%3E%3CmxCell%20id%3D%220%22%2F%3E%3CmxCell%20id%3D%221%22%20parent%3D%220%22%2F%3E%3CmxCell%20id%3D%222%22%20value%3D%22Clientes%22%20style%3D%22text%3Bhtml%3D1%3BstrokeColor%3Dnone%3BfillColor%3D%23808080%3Balign%3Dcenter%3BverticalAlign%3Dmiddle%3BwhiteSpace%3Dwrap%3Brounded%3D0%3Brotation%3D-90%3BfillStyle%3Dsolid%3BstrokeWidth%3D0%3BfontSize%3D20%3B%22%20vertex%3D%221%22%20parent%3D%221%22%3E%3CmxGeometry%20x%3D%2290%22%20y%3D%22140%22%20width%3D%22110%22%20height%3D%2250%22%20as%3D%22geometry%22%2F%3E%3C%2FmxCell%3E%3C%2Froot%3E%3C%2FmxGraphModel%3E&lt;/span&gt;" style="rounded=1;whiteSpace=wrap;html=1;fillStyle=solid;strokeWidth=1;fontSize=20;fillColor=default;" vertex="1" parent="1">
                    <mxGeometry x="130" y="340" width="560" height="490" as="geometry"/>
                </mxCell>
                <mxCell id="19" value="Infrastructure" style="rounded=1;whiteSpace=wrap;html=1;fillStyle=solid;strokeWidth=1;fontSize=14;fillColor=none;verticalAlign=top;" vertex="1" parent="1">
                    <mxGeometry x="180" y="450" width="460" height="220" as="geometry"/>
                </mxCell>
                <mxCell id="45" style="edgeStyle=none;html=1;fontSize=14;" edge="1" parent="1" source="12" target="19">
                    <mxGeometry relative="1" as="geometry"/>
                </mxCell>
                <mxCell id="12" value="Serviços" style="rounded=0;whiteSpace=wrap;html=1;fillStyle=solid;strokeWidth=1;fontSize=14;fillColor=none;" vertex="1" parent="1">
                    <mxGeometry x="345" y="360" width="120" height="50" as="geometry"/>
                </mxCell>
                <mxCell id="43" style="edgeStyle=none;html=1;fontSize=14;" edge="1" parent="1" source="13" target="15">
                    <mxGeometry relative="1" as="geometry"/>
                </mxCell>
                <mxCell id="13" value="Repositórios" style="rounded=0;whiteSpace=wrap;html=1;fillStyle=solid;strokeWidth=1;fontSize=14;fillColor=none;" vertex="1" parent="1">
                    <mxGeometry x="350" y="494" width="120" height="46" as="geometry"/>
                </mxCell>
                <mxCell id="42" style="edgeStyle=none;html=1;fontSize=14;" edge="1" parent="1" source="14" target="15">
                    <mxGeometry relative="1" as="geometry"/>
                </mxCell>
                <mxCell id="14" value="Unit of Work" style="rounded=0;whiteSpace=wrap;html=1;fillStyle=solid;strokeWidth=1;fontSize=14;fillColor=none;" vertex="1" parent="1">
                    <mxGeometry x="200" y="494" width="120" height="46" as="geometry"/>
                </mxCell>
                <mxCell id="15" value="Persistence Layer (Entity Framework)" style="rounded=0;whiteSpace=wrap;html=1;fillStyle=solid;strokeWidth=1;fontSize=14;fillColor=none;" vertex="1" parent="1">
                    <mxGeometry x="200" y="590" width="420" height="50" as="geometry"/>
                </mxCell>
                <mxCell id="44" style="edgeStyle=none;html=1;fontSize=14;" edge="1" parent="1" source="17" target="15">
                    <mxGeometry relative="1" as="geometry"/>
                </mxCell>
                <mxCell id="17" value="Domain Model" style="rounded=0;whiteSpace=wrap;html=1;fillStyle=solid;strokeWidth=1;fontSize=14;fillColor=none;" vertex="1" parent="1">
                    <mxGeometry x="505" y="494" width="120" height="46" as="geometry"/>
                </mxCell>
                <mxCell id="22" style="edgeStyle=none;html=1;entryX=0;entryY=0.5;entryDx=0;entryDy=0;fontSize=14;" edge="1" parent="1" source="13" target="17">
                    <mxGeometry relative="1" as="geometry"/>
                </mxCell>
                <mxCell id="47" value="" style="endArrow=none;dashed=1;html=1;fontSize=14;entryX=1;entryY=0.75;entryDx=0;entryDy=0;exitX=0;exitY=0.75;exitDx=0;exitDy=0;" edge="1" parent="1" source="10" target="10">
                    <mxGeometry width="50" height="50" relative="1" as="geometry">
                        <mxPoint x="430" y="660" as="sourcePoint"/>
                        <mxPoint x="480" y="610" as="targetPoint"/>
                    </mxGeometry>
                </mxCell>
                <mxCell id="48" value="AutoMapper (ViewModels &amp;lt;-&amp;gt; Models)" style="rounded=0;whiteSpace=wrap;html=1;fillStyle=solid;strokeWidth=1;fontSize=14;fillColor=default;" vertex="1" parent="1">
                    <mxGeometry x="150" y="720" width="260" height="30" as="geometry"/>
                </mxCell>
                <mxCell id="49" value="Dependency Injection" style="rounded=0;whiteSpace=wrap;html=1;fillStyle=solid;strokeWidth=1;fontSize=14;fillColor=default;" vertex="1" parent="1">
                    <mxGeometry x="420" y="720" width="160" height="30" as="geometry"/>
                </mxCell>
                <mxCell id="50" value="Validation Layer (Não utilizado neste exemplo)" style="rounded=0;whiteSpace=wrap;html=1;fillStyle=solid;strokeWidth=1;fontSize=14;fillColor=default;" vertex="1" parent="1">
                    <mxGeometry x="150" y="760" width="310" height="30" as="geometry"/>
                </mxCell>
                <mxCell id="51" value="" style="group" vertex="1" connectable="0" parent="1">
                    <mxGeometry x="90" y="880" width="590" height="120" as="geometry"/>
                </mxCell>
                <mxCell id="34" value="" style="rounded=1;whiteSpace=wrap;html=1;fillStyle=solid;strokeWidth=1;fontSize=14;fillColor=default;" vertex="1" parent="51">
                    <mxGeometry x="50" width="540" height="120" as="geometry"/>
                </mxCell>
                <mxCell id="39" value="Dados" style="text;html=1;strokeColor=none;fillColor=#808080;align=center;verticalAlign=middle;whiteSpace=wrap;rounded=0;rotation=-90;fillStyle=solid;strokeWidth=0;fontSize=20;" vertex="1" parent="51">
                    <mxGeometry x="-30" y="35" width="110" height="50" as="geometry"/>
                </mxCell>
                <mxCell id="40" value="Sql Lite" style="shape=cylinder3;whiteSpace=wrap;html=1;boundedLbl=1;backgroundOutline=1;size=15;fillStyle=solid;strokeWidth=1;fontSize=14;fillColor=default;" vertex="1" parent="51">
                    <mxGeometry x="120" y="20" width="60" height="80" as="geometry"/>
                </mxCell>
                <mxCell id="53" style="edgeStyle=none;html=1;entryX=0.5;entryY=1;entryDx=0;entryDy=0;fontSize=14;" edge="1" parent="1" source="34" target="10">
                    <mxGeometry relative="1" as="geometry"/>
                </mxCell>
            </root>
        </mxGraphModel>
    </diagram>
</mxfile>